<mxfile host="app.diagrams.net" modified="2023-12-06T06:24:18.913Z" agent="Mozilla/5.0 (Windows NT 10.0; Win64; x64; rv:109.0) Gecko/20100101 Firefox/118.0" version="22.1.5" etag="5-J-FqHjMMQIEb_GsJ7A" type="github">
  <diagram name="Page-1" id="aCb7epbHnFLDsyDFF6Su">
    <mxGraphModel>
      <root>
        <mxCell id="0" />
        <mxCell id="1" parent="0" />
      </root>
    </mxGraphModel>
  </diagram>
</mxfile>
